<svg xmlns="http://www.w3.org/2000/svg" width="80" height="80" fill="none"><path fill="#213F3B" d="M0 40v40h80V0H0zm47.6-26.686c5.097.092 11.943.172 15.223.172s6.034.034 6.137.068c.251.092.229.423-.046.972-.731 1.417-4.32 2.765-8.914 3.36-2.011.251-7.554.423-12.549.377l-4.48-.034V67.2H38.63V18.194l-.766-.091c-.434-.046-3.349-.092-6.492-.092-5.462-.011-5.771 0-7.085.252-2.709.503-4.823 1.234-6.595 2.263-1.28.754-2.857 2.32-3.428 3.417-.983 1.886-1.349 4.274-.914 5.943.137.503.274 1.04.308 1.2.137.548-1.291-1.12-1.703-2-.525-1.086-.674-1.829-.663-3.189.046-3.977 2.858-8.046 6.995-10.114 2.617-1.314 6.457-2.194 10.914-2.514 2.16-.149 8.354-.138 18.4.045m-28.514 19.6c2.571 1.029 3.988 2 5.291 3.657.663.846 1.554 2.355 1.737 2.949.069.229-.011.206-.708-.24-1.029-.663-2.126-1.211-4.206-2.103-.937-.4-2-.914-2.343-1.143-.788-.525-1.828-1.497-2.457-2.331-.457-.583-1.314-2.023-1.314-2.194 0-.092 2.251.708 4 1.405"/></svg>