<svg xmlns="http://www.w3.org/2000/svg" width="20" height="15" fill="none"><path fill="#fff" fill-rule="evenodd" d="M7.618 3c.95.677 1.93 1.42 2.873 2.136.952.723 1.917 1.419 2.841 2.119-1.656 1.114-3.32 2.189-5 3.288-.235.153-.459.34-.714.457zM.006 4.153v6.757c0 .795-.038 1.546.142 2.102.179.553.502.997.884 1.32.396.332.856.575 1.532.633.636.054 1.382.017 2.115.017h10.657c.717 0 1.443.05 2.132-.017 1.22-.117 2.06-.928 2.384-1.985.176-.573.142-1.325.142-2.103V4.12c0-.8.05-1.491-.142-2.103a2.9 2.9 0 0 0-.868-1.334C18.596.347 18.147.09 17.468.03c-.67-.058-1.419-.017-2.116-.017H4.695c-.704 0-1.517-.04-2.163.017-1.2.105-2.095.952-2.4 2.002-.173.595-.126 1.357-.126 2.12" clip-rule="evenodd"/></svg>