<svg xmlns="http://www.w3.org/2000/svg" width="17" height="17" fill="none"><path fill="#fff" d="M10.14 10.14C8.803 11.516 8.705 13.235 8.59 17c3.51 0 5.932-.012 7.183-1.226C16.988 14.523 17 11.985 17 8.59c-3.764.122-5.482.213-6.86 1.548M0 8.59c0 3.394.012 5.932 1.226 7.183C2.477 16.988 4.9 17 8.41 17c-.122-3.764-.213-5.482-1.548-6.86C5.483 8.803 3.764 8.705 0 8.59M8.409 0C4.906 0 2.477.012 1.226 1.226.012 2.477 0 5.015 0 8.41c3.764-.122 5.483-.213 6.86-1.548C8.197 5.483 8.295 3.764 8.41 0m1.73 6.86C8.804 5.483 8.706 3.765 8.591 0c3.51 0 5.932.012 7.183 1.226C16.988 2.477 17 5.015 17 8.41c-3.764-.122-5.482-.213-6.86-1.548"/></svg>