<svg xmlns="http://www.w3.org/2000/svg" width="23" height="14" fill="none"><path fill="#fff" d="M22.795 12.487c-.062-.11-.444-.997-2.284-2.819-1.927-1.908-1.668-1.598.652-4.897 1.413-2.009 1.979-3.236 1.802-3.76-.169-.5-1.208-.368-1.208-.368l-3.456.021s-.256-.037-.447.085c-.185.12-.305.395-.305.395s-.548 1.555-1.278 2.877c-1.54 2.79-2.156 2.937-2.408 2.764-.585-.403-.438-1.623-.438-2.488 0-2.703.383-3.83-.75-4.122-.376-.097-.652-.161-1.614-.172-1.233-.014-2.278.005-2.87.313-.393.206-.696.664-.511.69.229.032.746.149 1.02.548.356.513.343 1.67.343 1.67s.204 3.182-.476 3.578c-.467.271-1.107-.282-2.48-2.814-.703-1.296-1.235-2.73-1.235-2.73S4.75.99 4.568.848C4.346.675 4.036.62 4.036.62L.749.64S.256.657.075.885c-.16.204-.013.624-.013.624s2.573 6.422 5.486 9.66c2.673 2.967 5.706 2.772 5.706 2.772h1.374s.416-.05.627-.293c.196-.224.188-.644.188-.644s-.027-1.968.83-2.258c.844-.285 1.928 1.902 3.076 2.744.869.637 1.529.497 1.529.497l3.072-.046s1.607-.106.845-1.454"/></svg>