<svg xmlns="http://www.w3.org/2000/svg" width="20" height="20" fill="none"><path fill="#fff" d="M9.97 0C4.461 0 0 4.472 0 10c0 2.174.708 4.224 1.908 5.87L.646 19.596l3.846-1.242C6.062 19.41 7.97 20 10 20c5.508 0 10-4.472 10-10-.03-5.528-4.523-10-10.03-10m5.845 14.13c-.246.684-1.446 1.336-1.969 1.398s-.523.435-3.508-.714c-2.953-1.18-4.83-4.193-4.984-4.41-.154-.187-1.2-1.584-1.2-3.013s.738-2.143 1.015-2.422.585-.373.77-.373c.184 0 .4.031.553.031.185 0 .4-.093.646.497.247.59.831 2.019.893 2.174.061.155.123.31.03.497-.092.186-.153.31-.276.497-.154.155-.308.373-.431.497-.154.155-.308.31-.123.59.184.28.769 1.242 1.63 2.019 1.108.993 2.062 1.304 2.339 1.46.277.154.462.123.615-.063.185-.186.739-.838.924-1.149.184-.28.4-.248.646-.155.277.093 1.692.807 2 .962.277.156.492.218.553.342.093.062.093.652-.123 1.335"/></svg>