<svg xmlns="http://www.w3.org/2000/svg" width="20" height="17" fill="none"><path fill="#fff" fill-rule="evenodd" d="M20 1.366c-.105.475-.215.95-.314 1.426q-.969 4.622-1.936 9.244c-.278 1.328-.554 2.655-.838 3.98a2 2 0 0 1-.184.5c-.218.417-.575.574-1.016.434a2 2 0 0 1-.573-.284c-1.437-1.062-2.867-2.135-4.3-3.205-.051-.039-.104-.076-.166-.12-.048.041-.093.077-.134.117q-1.11 1.078-2.217 2.157c-.22.215-.47.344-.8.325.028-.415.053-.817.081-1.218l.179-2.52c.01-.133.043-.269.026-.397-.064-.485.203-.765.529-1.062 2.651-2.411 5.29-4.837 7.932-7.258.04-.036.09-.065.112-.11.042-.081.067-.171.1-.258-.09-.025-.188-.089-.266-.068a1.6 1.6 0 0 0-.461.198A9020 9020 0 0 0 5.426 9.838c-.097.062-.18.096-.304.056-1.46-.47-2.923-.93-4.383-1.4a1.9 1.9 0 0 1-.503-.25C-.048 8.04-.083 7.742.17 7.5c.187-.177.412-.333.647-.429 1.23-.498 2.469-.975 3.705-1.458Q11.566 2.86 18.61.112c.15-.058.313-.096.472-.109.422-.033.736.2.865.62.015.049.035.097.052.145z" clip-rule="evenodd"/></svg>